<svg width="46" height="36" viewBox="0 0 46 36" fill="none" xmlns="http://www.w3.org/2000/svg">
<path d="M5.81327 0.204334C0.772282 1.08293 -0.852775 4.20683 0.407473 10.6743C2.19835 19.6067 8.66541 32.2975 12.9768 35.275C14.0712 36.0315 16.0942 36.2268 17.4871 35.7143C20.5714 34.5428 22.097 31.1016 23.4899 22.1937C23.8879 19.7287 24.4517 17.0685 24.7833 16.3119C25.5461 14.4815 27.1048 12.822 28.8957 11.9434C31.6152 10.5767 35.1306 9.91771 34.6 10.8451C33.4724 12.7976 32.9749 14.0422 32.2453 16.5072C30.9851 20.8758 29.559 22.4133 26.4415 22.7794L25.1813 22.9258L25.3471 24.439C25.8777 29.0028 27.2706 33.2737 28.763 34.7869C29.7248 35.8119 31.0514 36.1048 32.4111 35.6411C35.1306 34.6648 40.0058 27.2212 43.1896 19.1918C45.0799 14.3839 45.7432 11.7969 45.9422 8.20932C46.1744 4.37767 45.7432 2.98656 43.9855 1.66866C41.2329 -0.405804 37.0873 -0.503426 28.7962 1.30258C26.5079 1.81509 24.1864 2.25439 23.5894 2.32761C22.9261 2.37642 20.9694 2.08355 18.4489 1.52223C12.0482 0.0823059 8.56592 -0.283775 5.81327 0.204334ZM24.1864 5.59794C25.4798 6.3057 27.2706 8.0873 27.9671 9.35638L28.4977 10.3814L26.6405 11.7481C25.5793 12.5291 24.4185 13.6761 23.921 14.4815L23.0919 15.8482L22.097 14.3595C21.5664 13.5297 20.4056 12.3338 19.477 11.6749C18.5816 11.0404 17.852 10.357 17.852 10.1862C17.852 9.47841 20.074 6.91583 21.4337 6.01283C22.2628 5.50032 22.9924 5.06102 23.0588 5.06102C23.1251 5.06102 23.6557 5.30507 24.1864 5.59794ZM16.0611 11.3576C17.9846 12.0654 20.3393 14.091 21.2016 15.7506C21.7322 16.8 21.9643 17.8495 22.097 19.9972L22.2297 22.877H20.8699C19.0127 22.877 17.5203 22.3889 16.3927 21.3883C15.1988 20.3388 14.9998 19.9484 13.8391 16.1655C13.2753 14.4327 12.4793 12.4071 12.0482 11.6749C11.5839 10.9671 11.2191 10.3326 11.2191 10.3082C11.2191 10.1129 14.8672 10.8939 16.0611 11.3576Z" fill="#81B4F1"/>
</svg>
